<svg width="62.093315" height="10.486328" viewBox="0 0 62.0933 10.4863" fill="none" xmlns="http://www.w3.org/2000/svg" xmlns:xlink="http://www.w3.org/1999/xlink">
	<desc>
			Created with Pixso.
	</desc>
	<defs/>
	<path id="ConvertTo" d="M49.98 0.3Q49.31 0.25 48.4 0.15Q48.47 0.62 48.51 0.96Q48.55 1.29 48.58 1.5Q48.6 1.75 48.6 1.9Q48.6 2.06 48.62 2.4Q48.63 2.69 48.66 3.2Q48.69 3.71 48.75 4.51Q49.07 3.75 49.31 3.24Q49.56 2.73 49.75 2.41Q49.97 2.05 50.15 1.81Q50.33 1.62 50.52 1.49Q50.68 1.38 50.9 1.3Q50.95 1.28 51 1.27Q51.17 1.24 51.37 1.29Q51.32 2.44 51.29 3.35Q51.26 4.26 51.22 4.96Q51.19 5.66 51.17 6.16Q51.15 6.67 51.13 7.01Q51.08 7.84 51.06 8.12Q51.02 8.31 50.94 8.55Q50.87 8.76 50.75 9.05Q50.63 9.33 50.42 9.69Q51.01 9.62 51.45 9.59Q51.9 9.57 52.19 9.54Q52.53 9.51 52.76 9.51L54.43 9.51Q53.96 9.2 53.72 8.79Q53.47 8.38 53.36 7.99Q53.27 7.68 53.23 7.36Q53.22 7.22 53.21 7.08Q53.21 6.75 53.22 6Q53.24 5.37 53.27 4.25Q53.29 3.13 53.36 1.32Q53.81 1.27 54.15 1.31Q54.48 1.35 54.7 1.42Q54.95 1.5 55.12 1.62Q55.29 1.79 55.45 2.1Q55.6 2.37 55.78 2.83Q55.96 3.29 56.15 4.03Q56.27 3.4 56.33 2.94Q56.4 2.48 56.42 2.18Q56.45 1.83 56.45 1.59Q56.45 1.38 56.44 1.12Q56.42 0.9 56.42 0.6Q56.41 0.31 56.4 0Q55.12 0.13 54.28 0.21Q53.43 0.28 52.91 0.32Q52.29 0.38 51.94 0.39Q51.6 0.41 51.09 0.38Q50.65 0.35 49.98 0.3ZM5.28 0.18Q4.89 0.02 4.42 0.02Q4.23 0.02 4.05 0.05Q3.63 0.12 3.23 0.33Q2.67 0.64 2.19 1.14Q1.71 1.64 1.31 2.26Q0.92 2.89 0.64 3.55Q0.36 4.21 0.19 4.83Q0.03 5.45 0 5.91Q-0.04 6.61 0.26 7.34Q0.31 7.46 0.37 7.58Q0.65 8.17 1.1 8.67Q1.64 9.28 2.39 9.7Q2.75 9.9 3.13 10.03Q3.55 10.17 4.01 10.22Q4.69 10.24 5.46 9.99Q6.11 9.77 6.94 9.24Q7.77 8.7 8.64 7.64L6.62 7.27Q6.36 7.97 6 8.34Q5.65 8.72 5.3 8.9Q4.91 9.11 4.51 9.14Q4.5 9.14 4.5 9.14Q4.26 9.15 4.06 9.07Q3.94 9.03 3.84 8.96Q3.55 8.76 3.33 8.44Q3.1 8.12 2.95 7.71Q2.8 7.3 2.71 6.87Q2.61 6.43 2.58 6.02Q2.56 5.6 2.6 5.29Q2.64 4.93 2.78 4.51Q2.91 4.1 3.12 3.69Q3.25 3.45 3.39 3.22Q3.49 3.06 3.6 2.9Q3.87 2.52 4.16 2.25Q4.46 1.98 4.76 1.83Q4.99 1.72 5.23 1.72Q5.29 1.72 5.36 1.73Q5.38 1.74 5.4 1.74Q5.7 1.83 5.95 2.13Q6.17 2.4 6.35 2.92Q6.54 3.44 6.54 4.38Q6.93 3.65 7.19 3.19Q7.45 2.73 7.6 2.46L7.85 2Q7.93 1.88 8.11 1.66Q8.26 1.47 8.54 1.18Q8.82 0.88 9.27 0.45Q8.82 0.68 8.46 0.79Q8.09 0.91 7.82 0.97Q7.51 1.02 7.26 1.03Q7.21 1.03 7.15 1.03Q6.89 1.01 6.64 0.88Q6.34 0.72 6.01 0.53Q5.67 0.34 5.28 0.18ZM44.63 1.58Q44.35 1.55 43.94 1.51Q44.09 1.65 44.2 1.76L44.38 1.94Q44.45 2.02 44.5 2.09Q44.54 2.16 44.58 2.25Q44.61 2.33 44.65 2.46Q44.68 2.59 44.71 2.74L42.71 2.69L42.79 3.47L44.78 3.48Q44.78 3.62 44.77 3.76Q44.76 3.91 44.76 4.03Q44.75 4.18 44.75 4.32Q44.75 4.58 44.72 5.13Q44.69 5.68 44.67 6.28Q44.64 6.87 44.62 7.36Q44.61 7.86 44.62 7.98Q44.64 8.1 44.67 8.46Q44.69 8.81 44.86 9.18Q45.04 9.54 45.41 9.81Q45.79 10.08 46.51 10.06Q47.21 10.03 47.63 9.84Q48.04 9.65 48.29 9.4Q48.54 9.16 48.66 8.9Q48.78 8.65 48.88 8.5Q48.92 8.43 49 8.38Q49.14 8.25 49.44 8.2Q49.12 8.06 48.89 7.97Q48.66 7.87 48.51 7.8Q48.33 7.73 48.19 7.68Q48.07 7.62 47.92 7.57Q47.62 7.47 47.22 7.38Q47.4 7.69 47.47 7.9Q47.51 8.01 47.51 8.09Q47.51 8.17 47.44 8.33Q47.37 8.49 47.24 8.64Q47.11 8.79 46.94 8.9Q46.84 8.96 46.73 8.98Q46.64 9 46.55 9Q46.51 9 46.48 8.99Q46.33 8.94 46.27 8.66Q46.18 8.31 46.17 7.79Q46.16 7.27 46.2 6.66Q46.24 6.05 46.28 5.53L46.31 5.29Q46.33 5.11 46.36 4.73Q46.39 4.34 46.46 3.65L48.38 3.75L48.58 2.65L46.47 2.65Q46.48 2.54 46.5 2.44Q46.53 2.35 46.55 2.28L46.61 2.11L46.69 1.95Q46.73 1.87 46.79 1.77Q46.84 1.66 46.94 1.53Q46.5 1.58 46.21 1.6Q45.92 1.62 45.75 1.64Q45.54 1.65 45.42 1.64Q45.29 1.64 45.09 1.62Q44.91 1.61 44.63 1.58ZM23.73 2.65Q23.49 2.63 23.26 2.59Q23.56 2.83 23.75 2.98Q23.94 3.14 24.05 3.25Q24.19 3.37 24.24 3.44Q24.29 3.54 24.39 3.95Q24.49 4.37 24.58 4.89Q24.68 5.41 24.77 5.91Q24.87 6.41 24.94 6.67Q24.99 6.9 25.1 7.31Q25.2 7.66 25.35 8.25Q25.51 8.83 25.77 9.69L27.1 9.55Q27.45 8.53 27.74 7.73Q28.03 6.94 28.24 6.35Q28.45 5.75 28.61 5.33Q28.77 4.9 28.87 4.62Q29.12 3.95 29.22 3.77Q29.29 3.67 29.44 3.54Q29.56 3.43 29.78 3.27Q30.01 3.11 30.37 2.91Q29.89 2.96 29.57 2.98Q29.24 3 29.05 3Q28.82 3.02 28.7 3Q28.57 2.99 28.37 2.96Q28.19 2.93 27.9 2.91Q27.62 2.89 27.22 2.87Q27.55 3.24 27.64 3.39Q27.7 3.48 27.74 3.54Q27.75 3.59 27.68 3.88Q27.6 4.18 27.48 4.6Q27.36 5.03 27.19 5.51Q27.03 6 26.88 6.4Q26.73 6.8 26.61 7.08Q26.5 7.35 26.44 7.35L26.44 7.35Q26.38 7.36 26.3 7.09Q26.21 6.82 26.11 6.41Q26 6 25.91 5.5Q25.81 5.01 25.74 4.56Q25.66 4.11 25.62 3.77Q25.58 3.43 25.61 3.32Q25.63 3.21 25.72 3.07Q25.79 2.96 25.91 2.83Q26.03 2.69 26.25 2.57Q25.88 2.62 25.57 2.65Q25.27 2.67 25.05 2.69Q24.79 2.7 24.58 2.7Q24.38 2.7 24.16 2.69Q23.97 2.67 23.73 2.65ZM33.93 7.84Q33.61 7.92 33.22 7.92Q32.8 7.9 32.44 7.73Q32.13 7.58 31.85 7.29Q31.57 7 31.5 6.45Q32.07 6.42 32.47 6.41Q32.87 6.39 33.11 6.39L34.19 6.39Q34.55 6.39 35.18 6.38Q35.82 6.37 36.86 6.34Q36.88 6.09 36.85 5.85Q36.83 5.77 36.82 5.7Q36.75 5.38 36.64 5.14Q36.6 5.05 36.56 4.97Q36.46 4.77 36.34 4.59Q36.16 4.34 35.9 4.1Q35.64 3.86 35.29 3.67Q34.95 3.48 34.53 3.37Q34.11 3.25 33.62 3.25Q32.77 3.25 32.06 3.5Q31.35 3.75 30.85 4.15Q30.35 4.55 30.08 5.03Q29.8 5.5 29.82 5.94Q29.83 6.38 30 6.89Q30.01 6.93 30.03 6.98Q30.19 7.43 30.53 7.82Q30.9 8.25 31.5 8.55Q32.1 8.84 32.99 8.87Q33.73 8.9 34.2 8.79Q34.67 8.69 34.96 8.54Q35.25 8.39 35.4 8.23Q35.56 8.06 35.68 7.98Q35.71 7.96 35.74 7.94Q35.91 7.83 36.09 7.75Q36.29 7.66 36.5 7.6Q36.68 7.54 36.86 7.55Q36.89 7.55 36.91 7.56Q36.64 7.5 36.44 7.47Q36.24 7.43 36.11 7.41Q35.96 7.38 35.85 7.35Q35.74 7.34 35.59 7.3Q35.45 7.27 35.26 7.23Q35.07 7.2 34.79 7.15Q34.74 7.35 34.61 7.49Q34.55 7.56 34.46 7.62Q34.21 7.77 33.93 7.84ZM37.74 3.58Q37.53 3.59 37.27 3.58Q37.42 3.77 37.54 3.94Q37.67 4.11 37.75 4.26Q37.84 4.42 37.91 4.59Q37.97 4.73 38.01 5.07Q38.06 5.42 38.1 5.89Q38.14 6.35 38.17 6.88Q38.2 7.41 38.22 7.89Q38.24 8.38 38.23 8.76Q38.23 9.14 38.21 9.33Q38.19 9.55 38.13 9.76Q38.09 9.93 38.02 10.13Q37.95 10.33 37.84 10.48Q38.14 10.44 38.4 10.41Q38.65 10.37 38.84 10.34Q39.06 10.32 39.25 10.29Q39.43 10.28 39.66 10.26Q40.04 10.24 40.65 10.26Q40.36 10.03 40.18 9.8Q40 9.57 39.91 9.37Q39.79 9.14 39.74 8.94Q39.72 8.7 39.68 8.29Q39.65 7.94 39.61 7.36Q39.58 6.79 39.55 5.91Q39.94 5.35 40.28 5.15Q40.62 4.94 40.88 4.92Q41.04 4.9 41.18 4.93Q41.32 4.96 41.44 5.03Q41.59 5.16 41.65 5.33Q41.68 5.4 41.69 5.48Q41.71 5.71 41.54 6.06Q41.37 6.41 40.8 6.87Q41.19 6.83 41.47 6.81Q41.75 6.79 41.95 6.76L42.31 6.72Q42.46 6.72 42.64 6.69Q42.79 6.68 43.02 6.65Q43.24 6.63 43.53 6.6Q43.57 5.89 43.52 5.37Q43.46 4.86 43.35 4.49Q43.24 4.12 43.09 3.9Q42.94 3.67 42.78 3.54Q42.61 3.39 42.41 3.33Q42.17 3.26 41.89 3.3Q41.7 3.37 41.36 3.59Q41.07 3.78 40.58 4.12Q40.1 4.47 39.39 5.08Q39.37 4.56 39.39 4.33Q39.39 4.19 39.4 4.1Q39.4 4.01 39.44 3.89Q39.47 3.78 39.53 3.63Q39.58 3.48 39.66 3.28Q39.46 3.34 39.25 3.39Q39.03 3.44 38.84 3.47Q38.62 3.51 38.42 3.54Q38.28 3.55 38.1 3.56Q37.95 3.58 37.74 3.58ZM16.52 7.82Q16.47 8.17 16.38 8.62Q16.65 8.64 16.86 8.64Q17.06 8.65 17.2 8.65Q17.35 8.66 17.47 8.66Q17.58 8.68 17.72 8.69Q17.83 8.7 17.99 8.71Q18.16 8.72 18.35 8.75Q18.13 7.84 18.18 7.17Q18.24 6.49 18.39 6.04Q18.55 5.5 18.84 5.14Q19.22 4.7 19.56 4.53Q19.89 4.37 20.17 4.4Q20.33 4.41 20.46 4.48Q20.56 4.52 20.65 4.59Q20.66 4.6 20.67 4.6Q20.87 4.76 21.02 4.99Q21.18 5.22 21.27 5.46Q21.37 5.71 21.41 5.89Q21.52 6.41 21.49 6.91Q21.45 7.42 21.29 7.82Q21.26 7.9 21.21 8.05Q21.15 8.17 21.08 8.37Q21 8.57 20.88 8.85Q21.71 8.81 22.11 8.81Q22.34 8.81 22.48 8.83Q22.6 8.84 22.75 8.85Q22.87 8.87 23.02 8.87Q23.17 8.88 23.32 8.9Q23.32 8.89 23.31 8.88Q23.21 8.82 23.13 8.72Q23.05 8.61 23 8.5L22.89 8.25Q22.74 7.77 22.83 7.36Q22.91 6.95 23.04 6.54Q23.17 6.12 23.26 5.68Q23.34 5.23 23.17 4.7Q23.13 4.53 22.91 4.32Q22.7 4.1 22.35 3.9Q22 3.7 21.53 3.55Q21.05 3.4 20.51 3.37Q20.07 3.37 19.62 3.51Q19.22 3.62 18.77 3.88Q18.32 4.14 17.88 4.66L17.92 3.41Q17.69 3.47 17.51 3.51Q17.34 3.55 17.21 3.58Q17.06 3.62 16.95 3.66L16.67 3.75Q16.52 3.8 16.29 3.84Q16.06 3.89 15.75 3.96Q16.12 4.18 16.31 4.41Q16.41 4.53 16.46 4.64Q16.5 4.75 16.53 5.01Q16.56 5.26 16.58 5.58Q16.6 5.9 16.6 6.22Q16.61 6.54 16.62 6.78Q16.62 6.97 16.6 7.24Q16.57 7.47 16.52 7.82ZM32.72 5.5Q32.43 5.49 31.99 5.46Q32.1 4.66 32.53 4.3Q32.96 3.95 33.85 3.93Q34.07 3.95 34.26 4.03Q34.36 4.07 34.45 4.12Q34.69 4.27 34.9 4.59Q35.11 4.9 35.15 5.5Q34.22 5.55 33.88 5.55L33.54 5.55Q33.41 5.55 33.21 5.53Q33.02 5.52 32.72 5.5ZM12.91 4.13Q12.52 4 12.17 4Q10.94 4 10.22 4.34Q9.5 4.68 9.15 5.2Q8.96 5.49 8.86 5.81Q8.77 6.06 8.75 6.34Q8.7 6.95 8.78 7.51Q8.83 7.92 9.11 8.38Q9.14 8.45 9.18 8.51Q9.43 8.89 9.77 9.22Q10.16 9.61 10.6 9.87Q11.05 10.13 11.46 10.15Q11.68 10.17 11.98 10.17Q12.28 10.17 12.62 10.11Q12.96 10.06 13.33 9.95Q13.7 9.84 14.08 9.65Q14.24 9.57 14.37 9.46Q14.7 9.21 14.92 8.8Q15.04 8.56 15.13 8.3Q15.25 7.95 15.3 7.58Q15.36 7.08 15.3 6.59Q15.28 6.45 15.25 6.3Q15.12 5.68 14.78 5.31Q14.59 5.11 14.29 4.88Q14 4.66 13.64 4.46Q13.39 4.32 13.13 4.21Q13.02 4.17 12.91 4.13ZM59.66 4.13Q59.28 4 58.93 4Q57.7 4 56.98 4.34Q56.26 4.68 55.91 5.2Q55.72 5.49 55.62 5.81Q55.53 6.06 55.51 6.34Q55.45 6.95 55.54 7.51Q55.59 7.92 55.86 8.38Q55.9 8.45 55.94 8.51Q56.19 8.89 56.53 9.22Q56.92 9.61 57.36 9.87Q57.8 10.13 58.21 10.15Q58.43 10.17 58.73 10.17Q59.04 10.17 59.38 10.11Q59.72 10.06 60.09 9.95Q60.46 9.84 60.84 9.65Q60.99 9.57 61.13 9.46Q61.46 9.21 61.67 8.8Q61.8 8.56 61.89 8.3Q62.01 7.95 62.06 7.58Q62.12 7.08 62.06 6.59Q62.04 6.45 62.01 6.3Q61.88 5.68 61.54 5.31Q61.35 5.11 61.05 4.88Q60.76 4.66 60.4 4.46Q60.15 4.32 59.89 4.21Q59.78 4.17 59.66 4.13ZM12.13 9.23Q11.87 9.33 11.72 9.31Q11.45 9.28 11.25 9.15Q11.15 9.09 11.07 9Q11.07 9 11.06 8.99Q10.81 8.73 10.68 8.36Q10.54 7.98 10.51 7.56Q10.47 7.13 10.53 6.76Q10.58 6.42 10.7 6.1Q10.7 6.07 10.71 6.05Q10.84 5.71 11.01 5.44Q11.17 5.18 11.33 5Q11.5 4.82 11.61 4.77Q11.84 4.66 12.17 4.73Q12.5 4.81 12.73 4.93Q12.87 5.01 12.99 5.22Q13.11 5.42 13.21 5.74Q13.3 6.07 13.34 6.49Q13.37 6.91 13.33 7.42Q13.29 7.94 13.09 8.3Q12.89 8.66 12.64 8.9Q12.39 9.13 12.13 9.23ZM58.88 9.23Q58.62 9.33 58.47 9.31Q58.21 9.28 58.01 9.15Q57.91 9.09 57.83 9L57.82 8.99Q57.57 8.73 57.44 8.36Q57.3 7.98 57.26 7.56Q57.23 7.13 57.29 6.76Q57.34 6.42 57.45 6.1Q57.46 6.07 57.47 6.05Q57.6 5.71 57.76 5.44Q57.93 5.18 58.09 5Q58.26 4.82 58.37 4.77Q58.6 4.66 58.93 4.73Q59.25 4.81 59.49 4.93Q59.62 5.01 59.75 5.22Q59.87 5.42 59.96 5.74Q60.06 6.07 60.09 6.49Q60.13 6.91 60.09 7.42Q60.05 7.94 59.85 8.3Q59.65 8.66 59.4 8.9Q59.14 9.13 58.88 9.23Z" fill="#000000" fill-opacity="1.000000" fill-rule="evenodd"/>
</svg>
